<?xml version="1.0" encoding="UTF-8"?>
<svg width="220px" height="220px" viewBox="0 0 220 220" version="1.1" xmlns="http://www.w3.org/2000/svg" xmlns:xlink="http://www.w3.org/1999/xlink">
    <!-- Generator: Sketch 41.2 (35397) - http://www.bohemiancoding.com/sketch -->
    <title>lecture</title>
    <desc>Created with Sketch.</desc>
    <defs></defs>
    <g id="Welcome" stroke="none" stroke-width="1" fill="none" fill-rule="evenodd">
        <g id="Desktop-HD" transform="translate(-250.000000, -1273.000000)">
            <g id="Article" transform="translate(250.000000, 1273.000000)">
                <g id="lecture">
                    <g id="Layer_1">
                        <path d="M109.99957,220 C170.585938,220 220,170.585938 220,109.99957 C220,49.4140625 170.585938,0 109.99957,0 C49.4140625,0 0,49.4140625 0,109.99957 C0,170.585938 49.4140625,220 109.99957,220 Z" id="Shape" fill="#FF757C"></path>
                        <polygon id="Shape" fill="#F0B97D" points="104.505586 44.8628125 106.688398 44.8628125 113.310742 44.8628125 115.492695 44.8628125 116.383438 54.1225781 117.964688 55.3910156 121.298633 57.5141016 110 84.2019922 98.7022266 57.5141016 102.036172 55.3910156 103.617422 54.1234375 104.506875 44.8636719"></polygon>
                        <polygon id="Shape" fill="#ECF0F1" points="100.879883 56.0759375 91.7735156 58.9823437 109.998281 84.2007031 125.504414 58.135 119.070703 56.0961328 113.404414 60.0952344 106.612773 60.0952344"></polygon>
                        <polygon id="Shape" fill="#FF5B61" points="107.96543 59.7282813 108.744023 61.6485547 107.014102 83.5333984 109.999141 85.8184766 112.98418 83.5333984 111.254258 61.6485547 112.032852 59.7282812 109.998711 59.6479297"></polygon>
                        <path d="M101.036289,56.0256641 L84.9285938,61.1660156 C84.9285938,61.1660156 82.8433203,62.2496875 82.2133984,65.5466797 C81.6109766,68.7044531 81.2981641,71.9309766 80.8225,76.2854297 C88.5057422,83.3357422 98.7482031,87.6399219 109.997422,87.6399219 C121.246641,87.6399219 131.49082,83.3357422 139.173203,76.2854297 C138.69668,71.9314063 138.385156,68.7044531 137.782305,65.5466797 C137.152383,62.2496875 135.067109,61.1660156 135.067109,61.1660156 L119.069414,56.0957031 L109.997422,82.7002344 L101.035,56.0256641 L101.036289,56.0256641 L101.036289,56.0256641 Z" id="Shape" fill="#15BDB1"></path>
                        <path d="M101.036289,56.0256641 L97.5622656,57.1351172 L96.8945312,65.9505859 C96.8945312,65.9505859 97.0784375,66.6741797 97.6297266,66.6101563 L100.765586,67.7887891 C100.765586,67.7887891 100.970977,67.9941797 100.7875,68.2541406 L98.1045313,70.0932031 L107.375898,87.5677344 C108.243867,87.6171484 109.119141,87.6425 109.999141,87.6425 C110.88,87.6425 111.753555,87.6180078 112.622383,87.5677344 L121.894609,70.0932031 L119.211641,68.2541406 C119.027734,67.9946094 119.234414,67.7887891 119.234414,67.7887891 L122.369414,66.6101563 C122.920703,66.6746094 123.105469,65.9505859 123.105469,65.9505859 L122.440313,57.1634766 L119.073281,56.0965625 L110.001289,82.7010938 L101.038867,56.0265234 L101.036289,56.0256641 Z" id="Shape" fill="#20D0C2"></path>
                        <path d="M97.2030469,26.0304688 C97.2030469,26.8907031 96.8885156,27.7328906 96.9121484,28.5600391 C93.9675,28.0134766 95.3897656,36.7576172 97.0552344,37.9611719 C97.1880078,38.0569922 97.5128516,37.8447266 97.7874219,37.6685547 C98.3644922,40.8847656 103.296445,49.4806641 106.431445,53.0977734 C107.302852,54.1019531 112.628398,54.0860547 113.489492,53.1364453 C116.702266,49.6009766 121.626484,40.9045313 122.207422,37.6694141 C122.481992,37.8455859 122.808125,38.0578516 122.939609,37.9620313 C124.605937,36.7597656 126.028203,28.0143359 123.083555,28.5608984 C123.107187,27.73375 122.792656,26.8915625 122.792656,26.0313281 C122.629805,19.2405469 116.47625,15.8507422 109.997422,15.8215234 C103.518164,15.8498828 97.3650391,19.2405469 97.2017578,26.0313281 L97.2030469,26.0304688 Z" id="Shape" fill="#FED198"></path>
                        <path d="M101.148867,17.3258594 C100.221172,17.2180078 96.8666016,18.2449609 96.4639844,21.79375 C96.0622266,25.3425391 96.2547266,28.6120312 96.2547266,28.6120312 C96.2547266,28.6120312 98.2188281,29.1083203 98.4667578,31.1226953 C98.7138281,33.1366406 98.5376563,33.1366406 98.5376563,33.1366406 L99.2492188,32.9776562 L99.75625,29.5233984 C102.696172,27.6817578 99.7343359,24.9532422 102.674258,24.3147266 C110.614453,29.9732812 117.621367,29.0051953 120.780859,26.3432812 C120.780859,26.3432812 120.042656,29.1276562 120.612422,30.1206641 C121.180039,31.1136719 120.841875,32.6785937 120.841875,32.6785937 L121.580938,32.6433594 C121.580938,32.6433594 121.446445,28.5419922 123.086563,28.5608984 C129.316602,18.2750391 109.594805,5.49871094 101.150586,17.3267187 L101.148867,17.3258594 Z" id="Shape" fill="#666666"></path>
                        <g id="Group" transform="translate(100.546875, 52.421875)" fill="#FFFFFF">
                            <path d="M2.99234375,0.378125 C3.22351563,0.3953125 0.303789063,3.6884375 0.303789063,3.6884375 L2.78953125,12.1988281 L9.45140625,7.22691406 C5.78703125,5.42867188 3.59863281,3.09804688 2.99234375,0.378125 Z" id="Shape"></path>
                            <path d="M15.9117578,0.378125 C15.6814453,0.3953125 18.6003125,3.6884375 18.6003125,3.6884375 L16.1154297,12.1988281 L9.45140625,7.22691406 C13.1179297,5.42867188 15.3054688,3.09804688 15.9117578,0.378125 Z" id="Shape"></path>
                        </g>
                        <path d="M106.373867,45.1507031 L108.195742,43.910625 C108.755625,44.4335547 111.362109,44.4249609 111.919844,43.9058984 L113.600352,45.1507031 C114.415039,45.7539844 115.256367,45.9615234 115.465625,46.8995312 L116.133359,49.8931641 C116.342617,50.8320312 114.485078,53.9876562 113.461562,53.9876562 L106.235937,53.9876562 C105.212852,53.9876562 103.807773,50.9768359 103.970625,50.0267969 L104.507734,46.8995312 C104.671445,45.9503516 105.533398,45.7239062 106.373867,45.1507031 Z M109.528633,45.8519531 L109.528633,45.8519531 L105.993164,47.7086328 C105.993164,47.7086328 106.158164,49.7633984 106.615781,50.4066406 C107.073398,51.0507422 108.875508,50.2833203 108.875508,50.2833203 C108.875508,50.2833203 108.875508,48.6737109 109.399297,48.6994922 C109.403164,48.7003516 110.573203,48.7003516 110.57793,48.6994922 C111.100859,48.6737109 111.100859,50.2833203 111.100859,50.2833203 C111.100859,50.2833203 112.90168,51.0507422 113.360586,50.4066406 C113.819063,49.7625391 113.983203,47.7086328 113.983203,47.7086328 L110.447734,45.8519531 L109.989258,45.9808594 L109.531641,45.8519531 L109.528633,45.8519531 L109.528633,45.8519531 Z" id="Shape" fill="#666666"></path>
                        <path d="M86.3783594,51.1164844 L97.2051953,48.654375 L97.2051953,50.5149219 L86.7887109,52.9770313 C86.5339062,52.9980859 84.8353516,53.6894531 84.3029687,54.2226953 C83.7705859,54.7550781 83.4388672,55.4902734 83.4388672,56.2985156 C83.4388672,61.6 83.4474609,66.8980469 83.4474609,72.1909375 L82.5077344,72.1909375 L81.5766016,72.1909375 L81.5766016,71.2598047 L81.5766016,56.2985156 C81.5766016,54.9767969 82.1175781,53.7758203 82.9864062,52.9069922 C83.8552344,52.0381641 85.6723828,51.2015625 86.3783594,51.1164844 Z" id="Shape" fill="#CCCCCC"></path>
                        <path d="M90.949375,48.9697656 L99.3063672,47.2084766 C100.00375,47.0615234 100.692539,47.5118359 100.839062,48.2070703 L101.094727,49.4235156 C101.24168,50.1208984 100.792656,50.8105469 100.096133,50.9562109 L91.7391406,52.7183594 C91.0426172,52.8653125 90.3542578,52.415 90.2073047,51.7197656 L89.9503516,50.5033203 C89.8033984,49.8067969 90.2537109,49.1171484 90.9489453,48.970625 L90.9489453,48.9697656 L90.949375,48.9697656 Z" id="Shape" fill="#FBB429"></path>
                        <path d="M82.5042969,68.2889453 C84.981875,68.2889453 86.9910937,70.2973047 86.9910937,72.7757422 L86.9902344,72.8049609 L78.0192187,72.8049609 L78.0183594,72.7757422 C78.0183594,70.2981641 80.0258594,68.2889453 82.5042969,68.2889453 Z" id="Shape" fill="#666666"></path>
                        <g id="Group" transform="translate(68.320312, 71.757812)" fill="#FBB429">
                            <polygon id="Shape" points="0.248789062 0.405625 83.1092969 0.405625 83.1092969 6.47753906 0.248789062 6.47753906"></polygon>
                            <path d="M11.0236328,6.47667969 L72.3340234,6.47667969 L72.3340234,45.2400781 C63.2581641,50.2970703 52.8064453,53.1802734 41.6792578,53.1802734 C30.5529297,53.1802734 20.1003516,50.2962109 11.0244922,45.2400781 L11.0244922,6.47667969 L11.0236328,6.47667969 Z" id="Shape"></path>
                        </g>
                        <g id="Group" transform="translate(68.320312, 78.203125)" fill="#F5A209">
                            <path d="M0.248789062,0.0313671875 L11.0236328,6.85996094 L11.0236328,0.0313671875 L0.248789062,0.0313671875 Z M83.1092969,0.0313671875 L83.1092969,0.0313671875 L72.3335937,6.85996094 L72.3335937,0.0313671875 L83.1092969,0.0313671875 Z" id="Shape"></path>
                            <polygon id="Shape" points="11.0236328 0.0313671875 72.3340234 0.0313671875 72.3340234 2.61035156 11.0236328 2.61035156"></polygon>
                        </g>
                        <path d="M67.6426953,121.825859 C67.6426953,122.527109 67.3878906,123.212891 67.4059375,123.884492 C63.5237109,121.761406 67.0205078,130.698906 68.3753125,131.676016 C68.7495703,131.944141 69.4912109,130.880234 69.6239844,131.334844 C70.6453516,134.865586 71.8274219,136.835273 73.1689063,138.528242 L72.8646875,141.69332 L71.5760547,142.725859 L68.8617188,144.454922 L87.2592188,144.454922 L84.5448828,142.725859 L83.2583984,141.69332 L82.9541797,138.528242 C84.2939453,136.835273 85.4760156,134.865586 86.4982422,131.334844 C86.6297266,130.880234 87.3717969,131.945 87.7460547,131.676016 C89.1008594,130.699336 92.5976563,121.761406 88.7141406,123.884492 C88.7339063,123.212891 88.4782422,122.52668 88.4782422,121.825859 C88.3454688,116.29707 88.1748828,110.534102 78.0608984,110.510039 C67.9464844,110.533672 67.7750391,116.296641 67.6435547,121.825859 L67.6426953,121.825859 Z" id="Shape" fill="#FED198"></path>
                        <path d="M85.6650781,111.735078 C89.9228516,111.238789 91.4491016,120.688906 88.8890234,123.79168 L85.1580469,134.98418 L82.6254688,137.529648 L73.761875,137.56832 L71.1953516,135.463281 L67.4059375,123.885352 C62.3334766,115.511172 74.5000781,103.202773 85.6642188,111.735938 L85.6650781,111.735078 Z" id="Shape" fill="#666666"></path>
                        <path d="M70.7635156,143.242344 L57.6507422,147.428789 C57.6507422,147.428789 55.9521875,148.310938 55.4395703,150.995625 C54.9488672,153.566016 54.6949219,156.193984 54.3073438,159.740195 L101.814023,159.740195 L101.814883,159.738477 C101.426445,156.194414 101.1725,153.566016 100.681797,150.996055 C100.16918,148.312227 98.4736328,147.429219 98.4736328,147.429219 L85.4480859,143.300352 L70.7652344,143.243633 L70.7635156,143.242344 Z" id="Shape" fill="#15BDB1"></path>
                        <path d="M73.0236719,139.309844 L83.1312109,139.309844 C83.7155859,139.309844 83.9961719,139.773047 84.1951172,140.253438 L85.4455078,143.300352 L70.7617969,143.243633 L71.9584766,140.254727 C72.1526953,139.76875 72.4380078,139.311133 73.0223828,139.311133 L73.0236719,139.309844 Z" id="Shape" fill="#FFFFFF"></path>
                        <path d="M131.520469,121.825859 C131.520469,122.527109 131.264805,123.212891 131.283711,123.884492 C127.401484,121.761406 130.898281,130.698906 132.253086,131.676016 C132.627344,131.944141 133.368125,130.880234 133.500898,131.334844 C134.523125,134.865586 135.704336,136.835273 137.04582,138.528242 L136.742461,141.69332 L135.452969,142.725859 L132.738633,144.454922 L151.136133,144.454922 L148.422656,142.725859 L147.136172,141.69332 L146.831953,138.528242 C148.171719,136.835273 149.353789,134.865586 150.376016,131.334844 C150.5075,130.880234 151.25043,131.945 151.623828,131.676016 C152.978633,130.699336 156.47543,121.761406 152.591914,123.884492 C152.61082,123.212891 152.356016,122.52668 152.356016,121.825859 C152.223242,116.29707 152.052656,110.534102 141.937383,110.510039 C131.823398,110.533672 131.653242,116.296641 131.520469,121.825859 Z" id="Shape" fill="#FED198"></path>
                        <path d="M149.542422,111.735078 C153.800195,111.238789 155.326445,120.688906 152.766367,123.79168 L149.034531,134.98418 L146.501094,137.529648 L137.638359,137.56832 L135.071836,135.463281 L131.282422,123.885352 C126.209961,115.511172 138.376563,103.202773 149.540703,111.735938 L149.542422,111.735078 Z" id="Shape" fill="#666666"></path>
                        <path d="M134.641289,143.242344 L121.527656,147.428789 C121.527656,147.428789 119.829961,148.310938 119.317344,150.995625 C118.826641,153.566016 118.572695,156.193984 118.184258,159.740195 L165.690938,159.740195 L165.691797,159.738477 C165.303359,156.194414 165.049414,153.566016 164.558711,150.996055 C164.046953,148.312227 162.350547,147.429219 162.350547,147.429219 L149.325,143.300352 L134.642148,143.243633 L134.641289,143.242344 Z" id="Shape" fill="#15BDB1"></path>
                        <path d="M136.901445,139.309844 L147.008984,139.309844 C147.594648,139.309844 147.873945,139.773047 148.072891,140.253438 L149.322422,143.300352 L134.63957,143.243633 L135.835391,140.254727 C136.030469,139.76875 136.314922,139.311133 136.900156,139.311133 L136.901445,139.309844 Z" id="Shape" fill="#FFFFFF"></path>
                        <path d="M32.0001172,144.145547 C32.0001172,145.026406 31.6778516,145.889648 31.7014844,146.734844 C26.819375,144.064336 31.2163672,155.303242 32.9209375,156.531719 C33.391875,156.870742 34.3238672,155.531406 34.4897266,156.10332 C35.7736328,160.542852 37.2599219,163.019141 38.9473047,165.148242 L38.5653125,169.130156 L36.9453906,170.429102 L33.5310938,172.602461 L56.6663281,172.602461 L53.25375,170.429102 L51.6355469,169.130156 L51.2526953,165.148242 C52.9379297,163.02043 54.4246484,160.542852 55.7102734,156.10332 C55.8761328,155.530977 56.8102734,156.870742 57.2790625,156.531719 C58.9823438,155.302813 63.3801953,144.065195 58.4972266,146.734844 C58.5217188,145.889648 58.2007422,145.026836 58.2007422,144.145547 C58.0331641,137.190625 57.8178906,129.945234 45.0991406,129.915586 C32.3786719,129.946094 32.1642578,137.190625 31.9988281,144.145547 L32.0001172,144.145547 Z" id="Shape" fill="#FED198"></path>
                        <path d="M54.6635547,131.456016 C60.0174609,130.83082 61.936875,142.715547 58.7185156,146.617969 L54.0271875,160.691523 L50.8410547,163.893555 L39.6958203,163.94168 L36.4688672,161.294805 L31.7036328,146.733555 C25.3257812,136.203203 40.6248047,120.725859 54.6635547,131.456016 Z" id="Shape" fill="#666666"></path>
                        <path d="M35.9240234,171.076641 L19.4347656,176.340312 C19.4347656,176.340312 17.3005078,177.450625 16.6542578,180.82625 C16.0376562,184.058789 15.7171094,187.363086 15.2302734,191.821523 L74.971875,191.821523 L74.9727344,191.820664 C74.4850391,187.363086 74.1644922,184.058789 73.5470312,180.82625 C72.9029297,177.450625 70.7703906,176.340312 70.7703906,176.340312 L54.3898437,171.149687 L35.9253125,171.0775 L35.9240234,171.076641 Z" id="Shape" fill="#15BDB1"></path>
                        <path d="M38.7672656,166.130508 L51.4782812,166.130508 C52.2151953,166.130508 52.5666797,166.714023 52.8167578,167.318594 L54.3885547,171.149687 L35.9231641,171.0775 L37.4275,167.319023 C37.6719922,166.708008 38.0299219,166.130937 38.7659766,166.130937 L38.7672656,166.130508 Z" id="Shape" fill="#FFFFFF"></path>
                        <path d="M96.8988281,144.145547 C96.8988281,145.026406 96.5765625,145.889648 96.6001953,146.734844 C91.7180859,144.064336 96.1142187,155.303242 97.8196484,156.531719 C98.2897266,156.870742 99.2225781,155.531406 99.3884375,156.10332 C100.673203,160.542852 102.159492,163.019141 103.846016,165.148242 L103.464023,169.130156 L101.844102,170.429102 L98.4298047,172.602461 L121.565039,172.602461 L118.152461,170.429102 L116.534258,169.130156 L116.151406,165.148242 C117.836641,163.02043 119.324219,160.542852 120.608125,156.10332 C120.773984,155.530977 121.708125,156.870742 122.176914,156.531719 C123.880195,155.302813 128.278047,144.065195 123.395078,146.734844 C123.418711,145.889648 123.097734,145.026836 123.097734,144.145547 C122.931016,137.190625 122.715742,129.945234 109.997422,129.915586 C97.2786719,129.946094 97.0638281,137.190625 96.8979687,144.145547 L96.8988281,144.145547 Z" id="Shape" fill="#FED198"></path>
                        <path d="M119.561406,131.456016 C124.915313,130.83082 126.834727,142.715547 123.617227,146.617969 L118.924609,160.691523 L115.739336,163.893555 L104.594102,163.94168 L101.366289,161.294805 L96.6010547,146.733555 C90.2236328,136.203203 105.523086,120.725859 119.561406,131.456016 Z" id="Shape" fill="#666666"></path>
                        <path d="M100.822305,171.076641 L84.3321875,176.340312 C84.3321875,176.340312 82.1979297,177.450625 81.5516797,180.82625 C80.9359375,184.058789 80.6145312,187.363086 80.1276953,191.821523 L139.869297,191.821523 L139.870156,191.820664 C139.38332,187.363086 139.061914,184.058789 138.444453,180.82625 C137.801211,177.450625 135.667812,176.340312 135.667812,176.340312 L119.287266,171.149687 L100.822734,171.0775 L100.822734,171.076641 L100.822305,171.076641 Z" id="Shape" fill="#15BDB1"></path>
                        <path d="M103.665117,166.130508 L116.376133,166.130508 C117.113047,166.130508 117.46582,166.714023 117.714609,167.318594 L119.286406,171.149687 L100.821875,171.0775 L102.326211,167.319023 C102.570703,166.708008 102.928633,166.130937 103.663828,166.130937 L103.665117,166.130508 Z" id="Shape" fill="#FFFFFF"></path>
                        <path d="M161.79625,144.145547 C161.79625,145.026406 161.475273,145.889648 161.497617,146.734844 C156.615508,144.064336 161.0125,155.303242 162.71707,156.531719 C163.188008,156.870742 164.12,155.531406 164.285859,156.10332 C165.569766,160.542852 167.056914,163.019141 168.744297,165.148242 L168.362305,169.130156 L166.742383,170.429102 L163.328086,172.602461 L186.46332,172.602461 L183.051602,170.429102 L181.432539,169.130156 L181.049687,165.148242 C182.734922,163.02043 184.2225,160.542852 185.507266,156.10332 C185.672266,155.530977 186.607266,156.870742 187.076055,156.531719 C188.781484,155.302813 193.177187,144.065195 188.294219,146.734844 C188.318711,145.889648 187.997734,145.026836 187.997734,144.145547 C187.831016,137.190625 187.615742,129.945234 174.897422,129.915586 C162.178672,129.946094 161.963828,137.190625 161.797109,144.145547 L161.79625,144.145547 Z" id="Shape" fill="#FED198"></path>
                        <path d="M184.458828,131.456016 C189.813594,130.83082 191.733008,142.715547 188.514648,146.617969 L183.822031,160.691523 L180.636758,163.893555 L169.491523,163.94168 L166.263711,161.294805 L161.499336,146.733555 C155.119766,136.203203 170.420078,120.725859 184.458828,131.456016 Z" id="Shape" fill="#666666"></path>
                        <path d="M165.720156,171.076641 L149.230039,176.340312 C149.230039,176.340312 147.095781,177.450625 146.45125,180.82625 C145.833359,184.058789 145.513242,187.363086 145.026406,191.821523 L204.768008,191.821523 L204.768867,191.820664 C204.282031,187.363086 203.961484,184.058789 203.344023,180.82625 C202.699922,177.450625 200.566094,176.340312 200.566094,176.340312 L184.185547,171.149687 L165.721875,171.0775 L165.720156,171.076641 Z" id="Shape" fill="#15BDB1"></path>
                        <path d="M168.563398,166.130508 L181.273555,166.130508 C182.010469,166.130508 182.361953,166.714023 182.612031,167.318594 L184.184688,171.149687 L165.719297,171.0775 L167.223633,167.319023 C167.468125,166.708008 167.826055,166.130937 168.562109,166.130937 L168.563398,166.130508 Z" id="Shape" fill="#FFFFFF"></path>
                    </g>
                </g>
            </g>
        </g>
    </g>
</svg>