<?xml version="1.0" encoding="UTF-8"?>
<svg width="220px" height="220px" viewBox="0 0 220 220" version="1.1" xmlns="http://www.w3.org/2000/svg" xmlns:xlink="http://www.w3.org/1999/xlink">
    <!-- Generator: Sketch 41.2 (35397) - http://www.bohemiancoding.com/sketch -->
    <title>Layer_1</title>
    <desc>Created with Sketch.</desc>
    <defs></defs>
    <g id="Welcome" stroke="none" stroke-width="1" fill="none" fill-rule="evenodd">
        <g id="Desktop-HD" transform="translate(-978.000000, -993.000000)">
            <g id="Article" transform="translate(250.000000, 993.000000)">
                <g id="calculation" transform="translate(728.000000, 0.000000)">
                    <g id="Layer_1">
                        <path d="M109.999141,219.998711 C170.585508,219.998711 219.999141,170.585078 219.999141,109.99957 C219.999141,49.4140625 170.585508,0.0004296875 109.999141,0.0004296875 C49.4136328,0.0004296875 0,49.4140625 0,109.99957 C0,170.585078 49.4136328,219.998711 109.999141,219.998711 Z" id="Shape" fill="#5DDDD3"></path>
                        <polygon id="Shape" fill="#FFFFFF" points="143.903203 30.0476172 41.2435547 71.6087109 100.329023 217.556367 202.988672 175.995703"></polygon>
                        <polygon id="Shape" fill="#15BDB1" points="2.97300781 138.949766 97.0797266 138.949766 97.0797266 26.4979687 2.97300781 26.4979687"></polygon>
                        <polygon id="Shape" fill="#C8CACC" points="68.5055078 138.949766 97.0788672 138.949766 97.0788672 49.005 41.2435547 71.6095703 68.5055078 138.950625 68.5055078 138.949766"></polygon>
                        <polygon id="Shape" fill="#666666" points="0 135.693594 94.1067187 135.693594 94.1067187 23.2417969 0 23.2417969"></polygon>
                        <g id="Group" transform="translate(8.593750, 59.726562)" fill="#FFFFFF">
                            <path d="M2.63011719,0.254804687 L12.32,0.254804687 C13.6322656,0.254804687 14.705625,1.32730469 14.705625,2.64042969 L14.705625,12.3303125 C14.705625,13.6425781 13.633125,14.7159375 12.32,14.7159375 L2.63011719,14.7159375 C1.31785156,14.7159375 0.244492188,13.6425781 0.244492188,12.3303125 L0.244492188,2.64042969 C0.244492188,1.32816406 1.31785156,0.254804687 2.63011719,0.254804687 Z" id="Shape"></path>
                            <path d="M21.4126172,0.254804687 L31.1033594,0.254804687 C32.415625,0.254804687 33.488125,1.32730469 33.488125,2.64042969 L33.488125,12.3303125 C33.488125,13.6425781 32.415625,14.7159375 31.1033594,14.7159375 L21.4126172,14.7159375 C20.1016406,14.7159375 19.0269922,13.6425781 19.0269922,12.3303125 L19.0269922,2.64042969 C19.0274219,1.32816406 20.1007813,0.254804687 21.4126172,0.254804687 Z" id="Shape"></path>
                        </g>
                        <path d="M48.7892969,59.9813672 L58.4800391,59.9813672 C59.7910156,59.9813672 60.8656641,61.0538672 60.8656641,62.3669922 L60.8656641,72.056875 C60.8656641,73.3691406 59.7914453,74.4425 58.4800391,74.4425 L48.7892969,74.4425 C47.4783203,74.4425 46.4058203,73.3691406 46.4058203,72.056875 L46.4058203,62.3669922 C46.4058203,61.0547266 47.4783203,59.9813672 48.7892969,59.9813672 Z" id="Shape" fill="#FBB429"></path>
                        <path d="M67.5730859,59.9813672 L77.2629687,59.9813672 C78.5752344,59.9813672 79.6485937,61.0538672 79.6485937,62.3669922 L79.6485937,72.056875 C79.6485937,73.3691406 78.5752344,74.4425 77.2629687,74.4425 L67.5730859,74.4425 C66.2608203,74.4425 65.1874609,73.3691406 65.1874609,72.056875 L65.1874609,62.3669922 C65.1878906,61.0547266 66.2599609,59.9813672 67.5730859,59.9813672 Z" id="Shape" fill="#FF5B61"></path>
                        <g id="Group" transform="translate(8.593750, 78.203125)" fill="#FFFFFF">
                            <path d="M2.63011719,0.148242188 L12.32,0.148242188 C13.6322656,0.148242188 14.705625,1.22246094 14.705625,2.53386719 L14.705625,12.22375 C14.705625,13.5360156 13.633125,14.609375 12.32,14.609375 L2.63011719,14.609375 C1.31785156,14.609375 0.244492188,13.536875 0.244492188,12.22375 L0.244492188,2.53386719 C0.244492188,1.22246094 1.31785156,0.148242188 2.63011719,0.148242188 Z" id="Shape"></path>
                            <path d="M21.4126172,0.148242188 L31.1033594,0.148242188 C32.415625,0.148242188 33.488125,1.22246094 33.488125,2.53386719 L33.488125,12.22375 C33.488125,13.5360156 32.415625,14.609375 31.1033594,14.609375 L21.4126172,14.609375 C20.1016406,14.609375 19.0269922,13.536875 19.0269922,12.22375 L19.0269922,2.53386719 C19.0274219,1.22246094 20.1007813,0.148242188 21.4126172,0.148242188 Z" id="Shape"></path>
                            <path d="M40.1955469,0.148242188 L49.8862891,0.148242188 C51.1972656,0.148242188 52.2719141,1.22246094 52.2719141,2.53386719 L52.2719141,12.22375 C52.2719141,13.5360156 51.1976953,14.609375 49.8862891,14.609375 L40.1955469,14.609375 C38.8845703,14.609375 37.8120703,13.536875 37.8120703,12.22375 L37.8120703,2.53386719 C37.8120703,1.22246094 38.8845703,0.148242188 40.1955469,0.148242188 Z" id="Shape"></path>
                            <path d="M58.9793359,0.148242188 L68.6692187,0.148242188 C69.9814844,0.148242188 71.0548437,1.22246094 71.0548437,2.53386719 L71.0548437,12.22375 C71.0548437,13.5360156 69.9814844,14.609375 68.6692187,14.609375 L58.9793359,14.609375 C57.6670703,14.609375 56.5937109,13.536875 56.5937109,12.22375 L56.5937109,2.53386719 C56.5941406,1.22246094 57.6662109,0.148242188 58.9793359,0.148242188 Z" id="Shape"></path>
                            <path d="M2.63011719,18.5186719 L12.32,18.5186719 C13.6322656,18.5186719 14.705625,19.5920312 14.705625,20.9034375 L14.705625,30.5941797 C14.705625,31.9051562 13.633125,32.9776562 12.32,32.9776562 L2.63011719,32.9776562 C1.31785156,32.9776562 0.244492188,31.9042969 0.244492188,30.5941797 L0.244492188,20.9034375 C0.244492188,19.5920312 1.31785156,18.5186719 2.63011719,18.5186719 Z" id="Shape"></path>
                            <path d="M21.4126172,18.5186719 L31.1033594,18.5186719 C32.415625,18.5186719 33.488125,19.5920312 33.488125,20.9034375 L33.488125,30.5941797 C33.488125,31.9051562 32.415625,32.9776562 31.1033594,32.9776562 L21.4126172,32.9776562 C20.1016406,32.9776562 19.0269922,31.9042969 19.0269922,30.5941797 L19.0269922,20.9034375 C19.0274219,19.5920312 20.1007813,18.5186719 21.4126172,18.5186719 Z" id="Shape"></path>
                            <path d="M40.1955469,18.5186719 L49.8862891,18.5186719 C51.1972656,18.5186719 52.2719141,19.5920312 52.2719141,20.9034375 L52.2719141,30.5941797 C52.2719141,31.9051562 51.1976953,32.9776562 49.8862891,32.9776562 L40.1955469,32.9776562 C38.8845703,32.9776562 37.8120703,31.9042969 37.8120703,30.5941797 L37.8120703,20.9034375 C37.8120703,19.5920312 38.8845703,18.5186719 40.1955469,18.5186719 Z" id="Shape"></path>
                            <path d="M58.9793359,18.5186719 L68.6692187,18.5186719 C69.9814844,18.5186719 71.0548437,19.5920312 71.0548437,20.9034375 L71.0548437,30.5941797 C71.0548437,31.9051562 69.9814844,32.9776562 68.6692187,32.9776562 L58.9793359,32.9776562 C57.6670703,32.9776562 56.5937109,31.9042969 56.5937109,30.5941797 L56.5937109,20.9034375 C56.5941406,19.5920312 57.6662109,18.5186719 58.9793359,18.5186719 Z" id="Shape"></path>
                            <path d="M2.63011719,36.8878125 L12.32,36.8878125 C13.6322656,36.8878125 14.705625,37.9603125 14.705625,39.2725781 L14.705625,48.9624609 C14.705625,50.2747266 13.633125,51.3480859 12.32,51.3480859 L2.63011719,51.3480859 C1.31785156,51.3480859 0.244492188,50.2747266 0.244492188,48.9624609 L0.244492188,39.2725781 C0.244492188,37.9598828 1.31785156,36.8878125 2.63011719,36.8878125 Z" id="Shape"></path>
                            <path d="M21.4126172,36.8878125 L31.1033594,36.8878125 C32.415625,36.8878125 33.488125,37.9603125 33.488125,39.2725781 L33.488125,48.9624609 C33.488125,50.2747266 32.415625,51.3480859 31.1033594,51.3480859 L21.4126172,51.3480859 C20.1016406,51.3480859 19.0269922,50.2747266 19.0269922,48.9624609 L19.0269922,39.2725781 C19.0274219,37.9598828 20.1007813,36.8878125 21.4126172,36.8878125 Z" id="Shape"></path>
                            <path d="M40.1955469,36.8878125 L49.8862891,36.8878125 C51.1972656,36.8878125 52.2719141,37.9603125 52.2719141,39.2725781 L52.2719141,48.9624609 C52.2719141,50.2747266 51.1976953,51.3480859 49.8862891,51.3480859 L40.1955469,51.3480859 C38.8845703,51.3480859 37.8120703,50.2747266 37.8120703,48.9624609 L37.8120703,39.2725781 C37.8120703,37.9598828 38.8845703,36.8878125 40.1955469,36.8878125 Z" id="Shape"></path>
                            <path d="M58.9793359,36.8878125 L68.6692187,36.8878125 C69.9814844,36.8878125 71.0548437,37.9603125 71.0548437,39.2725781 L71.0548437,48.9624609 C71.0548437,50.2747266 69.9814844,51.3480859 68.6692187,51.3480859 L58.9793359,51.3480859 C57.6670703,51.3480859 56.5937109,50.2747266 56.5937109,48.9624609 L56.5937109,39.2725781 C56.5941406,37.9598828 57.6662109,36.8878125 58.9793359,36.8878125 Z" id="Shape"></path>
                        </g>
                        <polygon id="Shape" fill="#C8CACC" points="6.39289062 29.1551562 87.7125391 29.1551562 87.7125391 47.1337109 6.39289062 47.1337109"></polygon>
                        <path d="M79.3482422,32.5819141 C80.3674609,32.5819141 81.296875,33.0008594 81.9714844,33.6741797 L81.9732031,33.6750391 L81.9740625,33.6767578 C82.6486719,34.3513672 83.0663281,35.2807813 83.0663281,36.3 L83.0663281,39.0190625 C83.0663281,40.0421484 82.6473828,40.9737109 81.9740625,41.6461719 C81.3016016,42.3199219 80.3708984,42.7384375 79.3478125,42.7384375 C78.3264453,42.7384375 77.3961719,42.3194922 76.7237109,41.6461719 L76.7207031,41.6431641 C76.0469531,40.9694141 75.6292969,40.04 75.6292969,39.0190625 L75.6292969,36.3 C75.6292969,35.2769141 76.0482422,34.3466406 76.7207031,33.67375 C77.3944531,33 78.3247266,32.5814844 79.3486719,32.5814844 L79.3482422,32.5814844 L79.3482422,32.5819141 Z M81.0317578,34.6151953 L81.0317578,34.6151953 C80.6007813,34.1842188 80.0048047,33.9160938 79.3482422,33.9160938 C78.6933984,33.9160938 78.0965625,34.1850781 77.6638672,34.6173438 C77.2307422,35.0491797 76.9626172,35.6460156 76.9626172,36.3008594 L76.9626172,39.0199219 C76.9626172,39.675625 77.2307422,40.2733203 77.6617188,40.7051563 C78.0948438,41.1361328 78.6903906,41.4051172 79.3469531,41.4051172 C80.0017969,41.4051172 80.5986328,41.1361328 81.0304688,40.7051563 C81.4635938,40.2720313 81.7317188,39.6751953 81.7317188,39.0207813 L81.7317188,36.3017188 C81.7317188,35.6460156 81.4644531,35.0491797 81.0326172,34.6182031 L81.0308984,34.6164844 L81.0317578,34.6151953 Z" id="Shape" fill="#FFFFFF"></path>
                        <polygon id="Shape" fill="#EC4B53" points="117.180078 115.518906 120.232578 115.518906 120.232578 21.1178516 117.180078 21.1178516"></polygon>
                        <polygon id="Shape" fill="#FF5B61" points="123.285937 115.518906 120.232578 115.518906 120.232578 21.1178516 123.285937 21.1178516"></polygon>
                        <polygon id="Shape" fill="#EC4B53" points="123.285937 115.518906 126.339297 115.518906 126.339297 21.1178516 123.285937 21.1178516"></polygon>
                        <polygon id="Shape" fill="#FBB429" points="121.764844 135.628281 126.339727 115.518906 117.180078 115.518906"></polygon>
                        <polygon id="Shape" fill="#FFFFFF" points="117.180078 21.1178516 126.339297 21.1178516 126.339297 18.13625 117.180078 18.13625"></polygon>
                        <g id="Group" transform="translate(116.875000, 12.031250)" fill="#0E7886">
                            <path d="M3.28667969,0.143945312 L6.483125,0.143945312 C8.12324219,0.143945312 9.46472656,1.48457031 9.46472656,3.12554687 L9.46472656,6.10585937 L0.305078125,6.10585937 L0.305078125,3.12554687 C0.305078125,1.48457031 1.6465625,0.143945312 3.28667969,0.143945312 Z" id="Shape"></path>
                            <polygon id="Shape" points="4.70207031 125.050234 5.0840625 125.050234 6.60730469 116.057734 3.19214844 116.057734"></polygon>
                        </g>
                        <path d="M102.900273,193.305234 L143.94875,176.389727 L144.523672,177.790078 L103.475195,194.706445 L102.900273,193.305234 Z M96.7660547,176.45375 L96.7660547,176.45375 L97.3409766,177.854961 L153.922656,154.537969 L153.347734,153.137617 L96.7660547,176.45375 Z M99.8327344,184.879922 L99.8327344,184.879922 L100.407656,186.280273 L156.989336,162.964141 L156.414414,161.56293 L99.8327344,184.879922 Z" id="Shape" fill="#D0D1D4"></path>
                        <g id="Group" transform="translate(109.570312, 97.109375)" fill="#15BDB1">
                            <polygon id="Shape" points="9.11066406 63.146875 6.78691406 57.3791797 1.04972656 59.6917578 0.0777734375 57.2786328 5.81496094 54.9660547 3.50238281 49.2288672 5.94472656 48.2444531 8.25730469 53.9816406 13.9944922 51.6690625 14.9664453 54.0821875 9.22796875 56.3947656 11.5530078 62.1616016 9.11066406 63.1460156 9.11066406 63.146875"></polygon>
                            <polygon id="Shape" points="33.7983594 3.09976562 33.7983594 0.1409375 45.4626563 0.1409375 45.4626563 3.09976562"></polygon>
                        </g>
                        <path d="M154.280586,133.414961 C154.832734,133.414961 155.271445,133.286914 155.591562,133.035977 C155.916406,132.781172 156.152305,132.451602 156.318164,132.045117 C156.477148,131.638633 156.578555,131.181875 156.619375,130.68 C156.655469,130.176836 156.679102,129.670234 156.679102,129.163203 C156.679102,128.669492 156.655469,128.185664 156.609922,127.701406 C156.564375,127.221016 156.465117,126.787031 156.304844,126.40332 C156.14457,126.020469 155.907812,125.708945 155.592422,125.472187 C155.281758,125.239297 154.8525,125.119844 154.309805,125.119844 C153.774414,125.119844 153.345156,125.23457 153.025898,125.466602 C152.705781,125.699492 152.45957,126.006719 152.290703,126.39043 C152.120977,126.774141 152.007539,127.211992 151.957266,127.701406 C151.902266,128.195117 151.874766,128.696992 151.874766,129.212617 C151.874766,129.714922 151.897539,130.21293 151.943086,130.710508 C151.984766,131.212812 152.090039,131.660547 152.258477,132.062305 C152.423477,132.464062 152.66582,132.788906 152.985078,133.039844 C153.309922,133.290781 153.73918,133.414102 154.283164,133.414102 L154.280586,133.414961 Z M149.904648,129.199297 L149.904648,129.199297 C149.904648,128.308555 149.996602,127.499883 150.173633,126.778867 C150.351953,126.056992 150.626523,125.445117 150.991328,124.937227 C151.356992,124.434922 151.814609,124.046484 152.365898,123.771914 C152.924062,123.50293 153.572031,123.366289 154.321406,123.366289 C155.051875,123.366289 155.686523,123.499063 156.230508,123.759453 C156.770625,124.023711 157.218789,124.407422 157.573711,124.905 C157.929922,125.403438 158.198906,126.014453 158.377227,126.737188 C158.555547,127.46293 158.643633,128.281484 158.643633,129.199297 C158.643633,131.135898 158.296016,132.606289 157.593047,133.616055 C156.893945,134.624102 155.789219,135.127266 154.281016,135.127266 C152.765078,135.127266 151.659492,134.624102 150.955664,133.616055 C150.257422,132.605859 149.904648,131.134609 149.904648,129.199297 Z M142.212813,123.206016 L142.212813,123.206016 C142.76625,123.206016 143.204531,123.079258 143.523789,122.822305 C143.843047,122.571367 144.085391,122.23793 144.245664,121.836172 C144.404648,121.429688 144.509922,120.968203 144.550742,120.448281 C144.597148,119.931797 144.619922,119.411016 144.619922,118.885938 C144.619922,118.411133 144.596289,117.940625 144.550742,117.464961 C144.509922,116.994023 144.405938,116.564766 144.245664,116.185781 C144.085391,115.806797 143.847773,115.500859 143.528516,115.261953 C143.213125,115.025195 142.783008,114.906602 142.239883,114.906602 C141.700625,114.906602 141.276523,115.026055 140.952539,115.258945 C140.632422,115.48625 140.386211,115.792188 140.216484,116.172031 C140.046758,116.551016 139.938047,116.985 139.883047,117.474844 C139.828047,117.959102 139.800547,118.451523 139.800547,118.949102 C139.800547,119.465586 139.82332,119.981641 139.868867,120.488672 C139.915273,120.996563 140.019688,121.45332 140.184258,121.854648 C140.349258,122.255547 140.590742,122.580391 140.914727,122.831328 C141.233984,123.078398 141.668828,123.205586 142.211523,123.205586 L142.212813,123.205586 L142.212813,123.206016 Z M137.836875,118.990352 L137.836875,118.990352 C137.836875,118.099609 137.924102,117.290938 138.101992,116.573359 C138.280312,115.85707 138.55875,115.244336 138.929141,114.742031 C139.298672,114.235 139.760156,113.851289 140.313164,113.577578 C140.864453,113.303008 141.51457,113.170234 142.263086,113.170234 C142.989687,113.170234 143.61875,113.299141 144.158008,113.562539 C144.697266,113.828945 145.144141,114.2075 145.505937,114.709805 C145.862148,115.206094 146.126406,115.819258 146.305586,116.541133 C146.483477,117.262148 146.57457,118.079844 146.57457,118.989063 C146.57457,120.925664 146.223086,122.396055 145.523984,123.40582 C144.825742,124.410859 143.720156,124.917891 142.212812,124.917891 C140.705469,124.917891 139.599883,124.410859 138.892187,123.40582 C138.188359,122.396055 137.836875,120.925664 137.836875,118.989063 L137.836875,118.990352 Z M139.293945,135.086445 L139.293945,135.086445 L156.166914,112.540742 L157.281094,113.303438 L140.540898,135.799297 L139.293945,135.086445 Z" id="Shape" fill="#D0D1D4"></path>
                        <path d="M168.742578,85.2177734 L166.061328,82.9051953 C164.741758,84.0958594 163.504258,84.9251562 162.349688,85.3900781 C161.195977,85.8554297 159.872109,85.971875 158.387539,85.7540234 C156.897383,85.5305859 155.421406,84.8680078 153.942422,83.7701562 L155.736797,80.6420312 C157.364453,81.6831641 158.740742,82.2327344 159.872109,82.286875 C161.475273,82.3599219 162.787109,81.915625 163.806758,80.9604297 L155.392188,73.7017187 C154.157695,74.5589453 152.72168,75.2782422 151.087148,75.8694922 C149.879297,76.3137891 148.654258,76.4001562 147.412031,76.1358984 C146.165078,75.8669141 145.013086,75.2709375 143.941875,74.3471094 C142.038359,72.7044141 141.077148,70.6977734 141.054375,68.3310547 C141.037188,66.7489453 141.70707,64.9876562 143.057148,63.0626562 L141.777969,61.9579297 L143.145234,60.3741016 L144.425273,61.4779687 C145.908125,60.0561328 147.430508,59.2259766 148.98125,58.9789062 C150.959531,58.6579297 152.904297,59.1133984 154.81168,60.3423047 L152.873359,63.4536719 C151.67582,62.6948437 150.573242,62.3205859 149.575508,62.3369141 C148.577773,62.3433594 147.615273,62.7090234 146.680273,63.4244531 L154.399609,70.08375 C155.904805,69.0357422 156.941641,68.3796094 157.504961,68.1046094 C158.589922,67.5872656 159.618594,67.2972266 160.598281,67.2293359 C161.57582,67.1524219 162.546914,67.2899219 163.518867,67.6328125 C164.480508,67.9757031 165.390156,68.5119531 166.234063,69.2385547 C168.087305,70.8378516 169.122852,72.758125 169.351016,75.0092578 C169.573594,77.2565234 168.920039,79.3491016 167.399375,81.296875 L170.110703,83.6369531 L168.744727,85.2207812 L168.742578,85.2177734 Z M145.281641,64.9807812 L145.281641,64.9807812 C144.544727,66.1516797 144.252969,67.3341797 144.419688,68.5153906 C144.577813,69.6978906 145.11707,70.6840234 146.041758,71.4815234 C146.954844,72.2708594 147.941406,72.6782031 148.993711,72.6996875 C150.045156,72.7224609 151.258164,72.2618359 152.624141,71.3148047 L145.281641,64.9807812 Z M165.174023,79.3761719 L165.174023,79.3761719 C165.945313,78.2250391 166.233203,76.9772266 166.042852,75.6275781 C165.853359,74.2860937 165.186484,73.1177734 164.049531,72.1363672 C163.07457,71.2958984 162.092305,70.8649219 161.08125,70.8335547 C160.076211,70.8077734 158.77168,71.355625 157.164648,72.4676562 L165.174023,79.3761719 Z" id="Shape" fill="#FBB429"></path>
                        <polygon id="Shape" fill="#D0D1D4" points="170.235742 150.693555 171.456055 146.397109 167.160469 145.176797 167.629258 143.526367 171.924844 144.747539 173.145156 140.451094 174.794727 140.919883 173.574414 145.216328 177.87 146.436641 177.401211 148.08707 173.105625 146.865898 171.884453 151.162344 170.234883 150.693555"></polygon>
                    </g>
                </g>
            </g>
        </g>
    </g>
</svg>