<?xml version="1.0" encoding="UTF-8"?>
<svg width="78px" height="100px" viewBox="0 0 78 100" version="1.1" xmlns="http://www.w3.org/2000/svg" xmlns:xlink="http://www.w3.org/1999/xlink">
    <!-- Generator: Sketch 41.2 (35397) - http://www.bohemiancoding.com/sketch -->
    <title>lock</title>
    <desc>Created with Sketch.</desc>
    <defs></defs>
    <g id="Page-1" stroke="none" stroke-width="1" fill="none" fill-rule="evenodd">
        <g id="lock" fill="#354251">
            <path d="M71.1111111,38.8888889 L61.1111111,38.8888889 L61.1111111,25.5555556 C61.1111111,9.46111111 53.6944444,0 38.8888889,0 C24.0777778,0 16.6666667,9.46111111 16.6666667,25.5555556 L16.6666667,38.8888889 L5.55555556,38.8888889 C2.48333333,38.8888889 0,42.4777778 0,45.55 L0,88.8888889 C0,91.9388889 2.37777778,95.2166667 5.28333333,96.15 L11.9333333,98.3 C14.8444444,99.2277778 19.7222222,100 22.7777778,100 L55,100 C58.05,100 62.9333333,99.2277778 65.8388889,98.2944444 L72.4833333,96.1444444 C75.3944444,95.2166667 77.7777778,91.9388889 77.7777778,88.8888889 L77.7777778,45.55 C77.7777778,42.4777778 74.1777778,38.8888889 71.1111111,38.8888889 Z M50,38.8888889 L27.7777778,38.8888889 L27.7777778,23.3277778 C27.7777778,15.3 32.2055556,11.1111111 38.8888889,11.1111111 C45.5722222,11.1111111 50,15.3 50,23.3277778 L50,38.8888889 Z" id="Shape"></path>
        </g>
    </g>
</svg>