<?xml version="1.0" encoding="UTF-8"?>
<svg width="220px" height="220px" viewBox="0 0 220 220" version="1.1" xmlns="http://www.w3.org/2000/svg" xmlns:xlink="http://www.w3.org/1999/xlink">
    <!-- Generator: Sketch 41.2 (35397) - http://www.bohemiancoding.com/sketch -->
    <title>student</title>
    <desc>Created with Sketch.</desc>
    <defs></defs>
    <g id="Welcome" stroke="none" stroke-width="1" fill="none" fill-rule="evenodd">
        <g id="Desktop-HD" transform="translate(-250.000000, -1853.000000)">
            <g id="Article" transform="translate(250.000000, 1853.000000)">
                <g id="student">
                    <g id="Layer_1">
                        <path d="M110.00043,220 C170.585938,220 220,170.585938 220,109.99957 C220,49.4140625 170.585938,0 110.00043,0 C49.4144922,0 0,49.4140625 0,109.99957 C0,170.585938 49.4144922,220 110.00043,220 Z" id="Shape" fill="#FFCA4F"></path>
                        <polygon id="Shape" fill="#F0B97D" points="99.7364844 84.0705078 103.813789 84.0705078 116.182773 84.0705078 120.260508 84.0705078 121.922969 101.368438 124.875781 103.738164 131.104102 107.702461 109.998281 157.555664 88.8933203 107.702461 95.1216406 103.738164 98.0757422 101.369727"></polygon>
                        <path d="M93.2572266,104.924531 L63.1679297,114.527617 C63.1679297,114.527617 60.2404688,116.051719 58.6961719,120.474062 C49.7333203,130.077148 21.0246094,161.461094 21.0246094,169.428789 C21.0246094,178.870742 45.5288281,201.612383 45.5288281,201.612383 L57.1596094,201.612383 L57.1596094,209.761836 L109.998711,209.761836 L162.838672,209.761836 L162.838672,201.612383 L174.470313,201.612383 C174.470313,201.612383 198.974102,178.870742 198.974102,169.428789 C198.974102,161.458945 170.261094,130.072852 161.30125,120.471055 C159.754805,116.051719 156.829922,114.528047 156.829922,114.528047 L126.946016,105.056016 L124.41043,112.492617 L109.998711,111.793086 L95.7966797,112.482734 L93.2572266,104.924531 L93.2572266,104.924531 Z M57.1596094,159.941719 L57.1596094,159.941719 L60.8888672,174.8175 L60.2292969,190.532891 L57.1596094,187.019766 L46.4505078,171.722461 L57.1596094,159.941719 L57.1596094,159.941719 Z M162.838672,187.020625 L162.838672,187.020625 L159.770703,190.343828 L159.109844,172.088125 L162.838672,159.94 L173.549492,171.722891 L162.838672,187.020625 Z" id="Shape" fill="#15BDB1"></path>
                        <polygon id="Shape" fill="#F1F1F1" points="92.9654687 105.018203 88.9173828 106.309414 109.998281 157.556094 131.266523 106.425 126.945586 105.056016 116.362383 111.596289 103.674141 111.596289"></polygon>
                        <path d="M93.2572266,104.924531 L86.7663672,106.996484 L85.5198437,123.464258 C85.5198437,123.464258 85.8631641,124.817773 86.8935547,124.696172 L92.7510547,126.897891 C92.7510547,126.897891 93.1343359,127.282031 92.7914453,127.766289 L87.7782812,131.201211 L105.098125,163.842852 C106.719766,163.936523 108.353867,163.983789 109.997852,163.983789 C111.643555,163.983789 113.276797,163.936523 114.898008,163.842852 L132.217852,131.201211 L127.205117,127.766289 C126.862227,127.282031 127.245078,126.897891 127.245078,126.897891 L133.102148,124.696172 C134.133398,124.817773 134.476719,123.464258 134.476719,123.464258 L133.233203,107.049766 L126.943867,105.055586 L109.996992,154.754531 L93.2572266,104.924531 L93.2572266,104.924531 Z" id="Shape" fill="#20D0C2"></path>
                        <path d="M133.901367,48.8945703 C133.901367,50.5016016 134.48832,52.0759766 134.444492,53.618125 C139.944492,52.5971875 137.289023,68.9334766 134.177227,71.1798828 C133.930156,71.3582031 133.321719,70.9598828 132.808672,70.6324609 C131.729297,76.6416406 122.517227,92.6964844 116.660156,99.4541797 C115.033359,101.331055 105.086953,101.299258 103.476055,99.5259375 C97.4767578,92.9216406 88.2767187,76.6760156 87.1917578,70.6324609 C86.6774219,70.9603125 86.0694141,71.3582031 85.8227734,71.1798828 C82.7109766,68.9334766 80.0550781,52.5971875 85.5550781,53.618125 C85.5116797,52.0759766 86.0973437,50.5016016 86.0973437,48.8945703 C86.4019922,36.2093359 97.8957031,29.8761719 110,29.8224609 C122.102578,29.8761719 133.597578,36.2093359 133.901367,48.8945703 L133.901367,48.8945703 Z" id="Shape" fill="#FED198"></path>
                        <path d="M126.531797,32.6330469 C128.265586,32.4315234 134.531289,34.3505078 135.282812,40.9792969 C136.035625,47.6085156 135.675117,53.7156641 135.675117,53.7156641 C135.675117,53.7156641 132.005156,54.6429297 131.542812,58.4048437 C131.081328,62.1676172 131.410469,62.1676172 131.410469,62.1676172 L130.081445,61.8694141 L129.134414,55.4185156 C123.643008,51.9780078 129.175664,46.8810547 123.682969,45.6873828 C108.849297,56.2598437 95.7614453,54.4508594 89.8592578,49.4767969 C89.8592578,49.4767969 91.2372656,54.6790234 90.1746484,56.533125 C89.1124609,58.3885156 89.7466797,61.31125 89.7466797,61.31125 L88.3669531,61.2442187 C88.3669531,61.2442187 88.6166016,53.58375 85.5537891,53.6172656 C73.9174219,34.4042187 110.757969,10.5372266 126.531797,32.6330469 L126.531797,32.6330469 Z" id="Shape" fill="#666666"></path>
                        <g id="Group" transform="translate(92.812500, 98.828125)" fill="#FFFFFF">
                            <path d="M5.11972656,0.07046875 C5.55070312,0.100976563 0.0966796875,6.20597656 0.0966796875,6.20597656 L4.73902344,21.9853906 L17.1866406,12.766875 C10.3395703,9.43292969 6.25367188,5.11414063 5.11972656,0.07046875 L5.11972656,0.07046875 Z" id="Shape"></path>
                            <path d="M29.2544141,0.07046875 C28.8242969,0.100976563 34.2766016,6.20597656 34.2766016,6.20597656 L29.6333984,21.9853906 L17.1866406,12.766875 C24.0337109,9.43292969 28.1200391,5.11414063 29.2544141,0.07046875 L29.2544141,0.07046875 Z" id="Shape"></path>
                        </g>
                        <path d="M56.08625,192.435547 C63.1039062,192.435547 68.7916797,195.966719 68.7916797,200.322031 C68.7916797,204.676914 63.1039062,208.208516 56.08625,208.208516 C49.0685937,208.208516 43.3808203,204.676484 43.3808203,200.322031 C43.3808203,195.966719 49.0685937,192.435547 56.08625,192.435547 Z M56.08625,194.518672 L56.08625,194.518672 C50.6249219,194.518672 46.1991406,197.119141 46.1991406,200.322031 C46.1991406,203.526641 50.6249219,206.127109 56.08625,206.127109 C61.5475781,206.127109 65.9742187,203.526641 65.9742187,200.322031 C65.9737891,197.119141 61.5475781,194.518672 56.08625,194.518672 Z" id="Shape" fill="#ECF0F1"></path>
                        <path d="M56.08625,206.12625 C61.5321094,206.12625 65.9742187,203.519336 65.9742187,200.322891 C65.9742187,197.126016 61.5321094,194.518672 56.08625,194.518672 C50.6403906,194.518672 46.1991406,197.126016 46.1991406,200.322891 C46.1987109,203.518906 50.6403906,206.12625 56.08625,206.12625 Z" id="Shape" fill="#377BB9"></path>
                        <path d="M52.0626562,203.6375 L52.0626562,209.993008 C52.0626562,210.781055 51.4189844,211.426016 50.6292187,211.426016 L48.1022266,211.426016 C47.31375,211.426016 46.6687891,210.781055 46.6687891,209.993008 L46.6687891,200.157891 C46.6687891,200.0075 46.6924219,199.862695 46.7358203,199.726055 L46.7358203,197.560859 C46.7358203,195.720508 48.2414453,194.215312 50.0822266,194.215312 L70.7716797,194.215312 C72.6120312,194.215312 74.1163672,195.720078 74.1163672,197.560859 L74.1163672,199.723047 C74.1614844,199.860117 74.1846875,200.006211 74.1846875,200.15832 L74.1846875,209.993437 C74.1846875,210.781484 73.5405859,211.426445 72.75125,211.426445 L70.2246875,211.426445 C69.4357812,211.426445 68.79125,210.781484 68.79125,209.993437 L68.79125,203.63793 L66.8103906,203.63793 L66.8103906,209.993437 C66.8103906,210.781484 66.1667187,211.426445 65.3769531,211.426445 L62.8499609,211.426445 C62.0610547,211.426445 61.4165234,210.781484 61.4165234,209.993437 L61.4165234,203.63793 L59.4365234,203.63793 L59.4365234,209.993437 C59.4365234,210.781484 58.7915625,211.426445 58.0030859,211.426445 L55.4760937,211.426445 C54.6863281,211.426445 54.0426562,210.781484 54.0426562,209.993437 L54.0426562,203.63793 L52.0626562,203.6375 L52.0626562,203.6375 Z" id="Shape" fill="#FBB429"></path>
                        <path d="M163.915039,192.435547 C156.898672,192.435547 151.210039,195.966719 151.210039,200.322031 C151.210039,204.676914 156.898242,208.208516 163.915039,208.208516 C170.932695,208.208516 176.621328,204.676484 176.621328,200.322031 C176.621328,195.966719 170.932266,192.435547 163.915039,192.435547 Z M163.915039,194.518672 L163.915039,194.518672 C169.376367,194.518672 173.803008,197.119141 173.803008,200.322031 C173.803008,203.526641 169.376797,206.127109 163.915039,206.127109 C158.453711,206.127109 154.028359,203.526641 154.028359,200.322031 C154.02793,197.119141 158.453281,194.518672 163.915039,194.518672 Z" id="Shape" fill="#ECF0F1"></path>
                        <path d="M163.915898,206.12625 C169.361328,206.12625 173.803867,203.519336 173.803867,200.322891 C173.803867,197.126016 169.361328,194.518672 163.915898,194.518672 C158.470039,194.518672 154.028789,197.126016 154.028789,200.322891 C154.028359,203.518906 158.470039,206.12625 163.915898,206.12625 Z" id="Shape" fill="#333333"></path>
                        <path d="M167.939063,203.6375 L167.939063,209.993008 C167.939063,210.781055 168.582734,211.426016 169.3725,211.426016 L171.899492,211.426016 C172.688828,211.426016 173.3325,210.781055 173.3325,209.993008 L173.3325,200.157891 C173.3325,200.0075 173.308867,199.862695 173.265469,199.726055 L173.265469,197.560859 C173.265469,195.720508 171.760703,194.215312 169.919922,194.215312 L149.230039,194.215312 C147.389688,194.215312 145.884492,195.720078 145.884492,197.560859 L145.884492,199.723047 C145.839375,199.860117 145.816602,200.006211 145.816602,200.15832 L145.816602,209.993437 C145.816602,210.781484 146.460273,211.426445 147.249609,211.426445 L149.777031,211.426445 C150.565078,211.426445 151.210039,210.781484 151.210039,209.993437 L151.210039,203.63793 L153.190469,203.63793 L153.190469,209.993437 C153.190469,210.781484 153.83543,211.426445 154.623906,211.426445 L157.150898,211.426445 C157.940664,211.426445 158.584336,210.781484 158.584336,209.993437 L158.584336,203.63793 L160.565195,203.63793 L160.565195,209.993437 C160.565195,210.781484 161.209297,211.426445 161.998633,211.426445 L164.525625,211.426445 C165.314102,211.426445 165.957773,210.781484 165.957773,209.993437 L165.957773,203.63793 L167.939063,203.6375 L167.939063,203.6375 Z" id="Shape" fill="#FBB429"></path>
                        <path d="M53.3233594,131.140195 L166.676641,131.140195 C170.296758,131.140195 173.258164,134.102031 173.258164,137.720859 L173.258164,200.370156 C173.258164,203.989414 170.296758,206.952109 166.676641,206.952109 L53.3233594,206.952109 C49.7032422,206.952109 46.7414063,203.989414 46.7414063,200.370156 L46.7414063,137.720859 C46.7414063,134.102031 49.7032422,131.140195 53.3233594,131.140195 Z" id="Shape" fill="#FFFFFF"></path>
                        <path d="M49.23875,210.180352 L170.76125,210.180352 C172.134961,210.180352 173.258594,211.304414 173.258594,212.679844 L173.258594,217.496641 C173.258594,218.8725 172.134531,219.995273 170.76125,219.995273 L49.23875,219.995273 C47.8646094,219.995273 46.7405469,218.8725 46.7405469,217.496641 L46.7405469,212.679844 C46.7405469,211.304414 47.8646094,210.180352 49.23875,210.180352 Z" id="Shape" fill="#C8CACC"></path>
                        <g id="Group" transform="translate(65.312500, 159.414062)" fill="#ECF0F1">
                            <path d="M0.0116015625,46.0307031 L10.7529297,46.0307031 L10.7529297,53.3542969 L0.0116015625,53.3542969 L0.0116015625,46.0307031 Z M78.6237891,46.0307031 L78.6237891,46.0307031 L89.3651172,46.0307031 L89.3651172,53.3542969 L78.6237891,53.3542969 L78.6237891,46.0307031 Z" id="Shape"></path>
                            <path d="M32.7705469,0.146523438 L56.6035937,0.146523438 C56.9237109,0.146523438 57.1841016,0.406914063 57.1841016,0.72703125 L57.1841016,6.1221875 C57.1841016,6.441875 56.9237109,6.70183594 56.6035937,6.70183594 L32.7705469,6.70183594 C32.4508594,6.70183594 32.1908984,6.441875 32.1908984,6.1221875 L32.1908984,0.72703125 C32.1913281,0.406914063 32.4508594,0.146523438 32.7705469,0.146523438 Z" id="Shape"></path>
                        </g>
                    </g>
                </g>
            </g>
        </g>
    </g>
</svg>