<?xml version="1.0" encoding="UTF-8"?>
<svg width="220px" height="220px" viewBox="0 0 220 220" version="1.1" xmlns="http://www.w3.org/2000/svg" xmlns:xlink="http://www.w3.org/1999/xlink">
    <!-- Generator: Sketch 41.2 (35397) - http://www.bohemiancoding.com/sketch -->
    <title>writing</title>
    <desc>Created with Sketch.</desc>
    <defs></defs>
    <g id="Welcome" stroke="none" stroke-width="1" fill="none" fill-rule="evenodd">
        <g id="Desktop-HD" transform="translate(-979.000000, -1563.000000)">
            <g id="Article" transform="translate(250.000000, 1553.000000)">
                <g id="writing" transform="translate(729.000000, 10.000000)">
                    <g id="Layer_1">
                        <path d="M110.00043,220 C170.585938,220 220,170.585938 220,109.99957 C220,49.4140625 170.585938,0 110.00043,0 C49.4140625,0 0,49.4140625 0,109.99957 C0,170.585938 49.4140625,220 110.00043,220 Z" id="Shape" fill="#5DDDD3"></path>
                        <polygon id="Shape" fill="#FFFFFF" points="50.5252344 30.7969922 169.474766 30.7969922 169.474766 164.61457 144.888906 189.201719 50.5252344 189.201719 50.5252344 30.7969922"></polygon>
                        <polygon id="Shape" fill="#FFCA4F" points="144.887617 164.615859 169.473477 164.615859 144.887617 189.203008"></polygon>
                        <path d="M65.2471875,48.5336328 L151.956836,48.5336328 L151.956836,49.8196875 L65.2471875,49.8196875 L65.2471875,48.5336328 Z M65.2471875,122.67793 L65.2471875,122.67793 L104.918945,122.67793 L104.918945,123.963984 L65.2471875,123.963984 L65.2471875,122.67793 Z M65.2471875,115.812813 L65.2471875,115.812813 L151.956836,115.812813 L151.956836,117.098867 L65.2471875,117.098867 L65.2471875,115.812813 Z M65.2471875,107.402539 L65.2471875,107.402539 L151.956836,107.402539 L151.956836,108.688594 L65.2471875,108.688594 L65.2471875,107.402539 Z M65.2471875,98.9935547 L65.2471875,98.9935547 L151.956836,98.9935547 L151.956836,100.279609 L65.2471875,100.279609 L65.2471875,98.9935547 Z M65.2471875,90.5832813 L65.2471875,90.5832813 L151.956836,90.5832813 L151.956836,91.8693359 L65.2471875,91.8693359 L65.2471875,90.5832813 Z M65.2471875,82.1742969 L65.2471875,82.1742969 L151.956836,82.1742969 L151.956836,83.4603516 L65.2471875,83.4603516 L65.2471875,82.1742969 Z M65.2471875,73.7644531 L65.2471875,73.7644531 L151.956836,73.7644531 L151.956836,75.0505078 L65.2471875,75.0505078 L65.2471875,73.7644531 Z M65.2471875,65.3550391 L65.2471875,65.3550391 L151.956836,65.3550391 L151.956836,66.6410938 L65.2471875,66.6410938 L65.2471875,65.3550391 Z M65.2471875,56.9451953 L65.2471875,56.9451953 L151.956836,56.9451953 L151.956836,58.23125 L65.2471875,58.23125 L65.2471875,56.9451953 Z" id="Shape" fill="#C8CACC"></path>
                        <polygon id="Shape" fill="#FFCA4F" points="104.249062 124.816055 86.9554297 134.132539 94.9420312 142.12 104.250352 124.816055"></polygon>
                        <path d="M89.2894922,136.469609 C91.2832422,136.650937 92.46875,137.673164 92.6053906,139.784219 L30.1421484,202.247461 L26.82625,198.931562 L89.2894922,136.469609 Z" id="Shape" fill="#20D0C2"></path>
                        <path d="M89.2894922,136.469609 C89.4575,134.87375 88.7742969,134.012656 86.9541406,134.133398 L24.4913281,196.596641 L26.8266797,198.931992 L89.2894922,136.469609 Z" id="Shape" fill="#15BDB1"></path>
                        <polygon id="Shape" fill="#ECF0F1" points="32.4775 204.582813 24.4908984 196.596211 22.5186328 198.568477 30.5052344 206.555078"></polygon>
                        <path d="M24.5871484,208.528633 L20.5467969,204.486992 C19.4614062,203.401602 19.4614062,201.626562 20.5467969,200.542461 L22.5203516,198.570195 L30.5069531,206.556797 L28.5346875,208.529062 C27.4505859,209.613164 25.6751172,209.614453 24.5901562,208.529062 L24.5871484,208.529062 L24.5871484,208.528633 Z" id="Shape" fill="#FFCA4F"></path>
                        <polygon id="Shape" fill="#666666" points="105.373984 124.018984 105.041406 123.686406 97.7637891 128.307266 100.741523 131.286289"></polygon>
                        <path d="M92.6053906,139.784219 C94.20125,139.616211 95.0623438,140.299414 94.9407422,142.12043 L32.4775,204.584102 L30.1421484,202.247891 L92.6053906,139.784219 Z" id="Shape" fill="#15BDB1"></path>
                    </g>
                </g>
            </g>
        </g>
    </g>
</svg>